<svg width="34" height="18" viewBox="0 0 34 18" fill="none" xmlns="http://www.w3.org/2000/svg">
<g opacity="0.5" filter="url(#filter0_i_17_3331)">
<path fill-rule="evenodd" clip-rule="evenodd" d="M11.5583 15.7969C11.4251 16.3824 10.9354 16.8601 10.3352 16.8427L1.02562 16.5742C0.425389 16.5568 -0.050719 16.0547 0.0043056 15.4568C0.82155 6.57581 8.41835 -0.253542 17.4568 0.00721903C26.4953 0.267981 33.6858 7.52395 33.9896 16.4372C34.0101 17.0374 33.5058 17.5112 32.9056 17.4939L23.596 17.2253C22.9958 17.208 22.5345 16.7029 22.4352 16.1107C22.0061 13.5516 19.8176 11.5681 17.1255 11.4904C14.4335 11.4127 12.1343 13.2668 11.5583 15.7969Z" fill="url(#paint0_radial_17_3331)"/>
</g>
<defs>
<filter id="filter0_i_17_3331" x="0" y="0" width="34.9325" height="17.736" filterUnits="userSpaceOnUse" color-interpolation-filters="sRGB">
<feFlood flood-opacity="0" result="BackgroundImageFix"/>
<feBlend mode="normal" in="SourceGraphic" in2="BackgroundImageFix" result="shape"/>
<feColorMatrix in="SourceAlpha" type="matrix" values="0 0 0 0 0 0 0 0 0 0 0 0 0 0 0 0 0 0 127 0" result="hardAlpha"/>
<feOffset dx="1.44969" dy="0.241615"/>
<feGaussianBlur stdDeviation="0.47115"/>
<feComposite in2="hardAlpha" operator="arithmetic" k2="-1" k3="1"/>
<feColorMatrix type="matrix" values="0 0 0 0 0 0 0 0 0 0 0 0 0 0 0 0 0 0 0.5 0"/>
<feBlend mode="normal" in2="shape" result="effect1_innerShadow_17_3331"/>
</filter>
<radialGradient id="paint0_radial_17_3331" cx="0" cy="0" r="1" gradientUnits="userSpaceOnUse" gradientTransform="translate(21.1873 5.75188) rotate(173.811) scale(21.126 10.563)">
<stop stop-color="#ADB5BD"/>
<stop offset="1" stop-color="#505357"/>
</radialGradient>
</defs>
</svg>
